<svg width="124" height="53" viewBox="0 0 124 53" fill="none" xmlns="http://www.w3.org/2000/svg">
<path fill-rule="evenodd" clip-rule="evenodd" d="M19.4154 0.34375H0V20.1242V52.785H16.5604V39.6439C17.6084 39.8155 18.684 39.9047 19.7805 39.9047C30.7049 39.9047 39.561 31.0487 39.561 20.1242C39.561 9.19978 30.7049 0.34375 19.7805 0.34375C19.6537 0.34375 19.5271 0.344944 19.4009 0.34732L19.4154 0.34375Z" fill="url(#paint0_linear)"/>
<g filter="url(#filter0_d)">
<path d="M29.8726 14.899L15.3814 29.4105L7.2663 21.3421L10.5703 18.0916L15.3814 22.8514L26.5686 11.6484L29.8726 14.899Z" fill="white"/>
</g>
<path d="M58.7389 24.8141C58.7389 25.1527 58.5588 25.339 58.1985 25.3729C58.0613 25.3898 57.8811 25.3982 57.6581 25.3982C57.435 25.3982 57.3064 25.3982 57.2721 25.3982C55.2304 25.3982 53.6521 24.8649 52.5369 23.7982C51.4217 22.7484 50.8641 21.0721 50.8641 18.7693C50.8641 18.2275 50.8813 17.6687 50.9156 17.093C50.9671 16.5004 51.0185 16.0094 51.07 15.6199C51.1215 15.2643 51.3274 15.0866 51.6876 15.0866C51.7048 15.0866 51.8077 15.0866 51.9965 15.0866C52.2023 15.0696 52.4168 15.0612 52.6398 15.0612C52.88 15.0442 53.103 15.0358 53.3089 15.0358C53.532 15.0358 53.6778 15.0358 53.7464 15.0358C53.5062 14.6463 53.3003 14.1892 53.1288 13.6643C52.9744 13.1224 52.8972 12.5383 52.8972 11.9118V11.4292C52.8972 10.3963 53.0859 9.53281 53.4633 8.83859C53.8579 8.12744 54.3726 7.56021 55.0074 7.13691C55.6594 6.69667 56.3971 6.38343 57.2206 6.19717C58.0613 5.99399 58.9362 5.89239 59.8455 5.89239C60.4632 5.89239 61.0207 5.91779 61.5183 5.96859C62.0158 6.01938 62.5562 6.09558 63.1396 6.19717C63.3283 6.23104 63.4741 6.28183 63.577 6.34956C63.6971 6.41729 63.7572 6.53582 63.7572 6.70514V9.06717C63.7572 9.38889 63.5856 9.54974 63.2425 9.54974C63.2253 9.54974 63.2082 9.54974 63.191 9.54974C62.6763 9.51588 62.2131 9.49048 61.8014 9.47355C61.3896 9.45661 60.9264 9.44815 60.4117 9.44815C59.2279 9.44815 58.3358 9.6344 57.7353 10.0069C57.152 10.3794 56.8603 11.0482 56.8603 12.0134V12.242C56.8603 12.9192 56.989 13.4865 57.2463 13.9436C57.5208 14.4008 57.8296 14.6971 58.1728 14.8326H63.68C64.0231 14.8326 64.1947 14.9934 64.1947 15.3151V18.2867C64.1947 18.4222 64.1432 18.5407 64.0403 18.6423C63.9545 18.727 63.8344 18.7693 63.68 18.7693H56.6287C56.4057 18.7693 56.114 18.7693 55.7537 18.7693C55.3934 18.7693 55.0932 18.7778 54.853 18.7947C54.853 18.8794 54.853 18.9894 54.853 19.1249C54.8702 19.2773 54.8787 19.3873 54.8787 19.4551C54.9645 21.1991 55.8567 22.0711 57.5551 22.0711H58.1985C58.5588 22.0711 58.7389 22.2319 58.7389 22.5536V24.8141Z" fill="#022A3B"/>
<path d="M70.6044 12.4959C70.6044 13.3256 70.776 13.9436 71.1191 14.35C71.4794 14.7564 72.0799 14.9596 72.9205 14.9596H74.4903V9.57514C74.3016 9.55821 74.1043 9.54974 73.8984 9.54974C73.6926 9.53281 73.4953 9.52434 73.3065 9.52434C72.4316 9.52434 71.7625 9.76986 71.2992 10.2609C70.836 10.7519 70.6044 11.4207 70.6044 12.2674V12.4959ZM67.6707 21.8933C67.6707 21.5885 67.8251 21.4361 68.1339 21.4361H70.5787C71.2478 21.4361 71.8139 21.4023 72.2772 21.3345C72.7575 21.2837 73.1521 21.1821 73.461 21.0298C73.7698 20.8774 73.9928 20.6657 74.1301 20.3948C74.2845 20.1239 74.3788 19.7852 74.4131 19.3789V18.7693H73.0235C71.0505 18.7693 69.515 18.2867 68.417 17.3216C67.319 16.3395 66.7699 14.9003 66.7699 13.0039V12.5721C66.7699 10.4387 67.3876 8.81319 68.6228 7.69567C69.8753 6.56121 71.6853 5.99399 74.0528 5.99399C74.3788 5.99399 74.7391 6.01092 75.1337 6.04478C75.5283 6.06172 75.9057 6.08711 76.266 6.12098C76.6263 6.15484 76.9609 6.19717 77.2697 6.24797C77.5785 6.29877 77.8187 6.35803 77.9902 6.42576C78.1618 6.51042 78.2819 6.58661 78.3505 6.65434C78.4192 6.70514 78.4535 6.79826 78.4535 6.93372V14.8326H80.6924V18.7693H78.3763V19.5567C78.2733 20.6572 78.016 21.5546 77.6042 22.2489C77.1925 22.96 76.6692 23.5103 76.0344 23.8998C75.4168 24.2892 74.7048 24.5516 73.8984 24.6871C73.1092 24.8395 72.2857 24.9157 71.4279 24.9157C71.2907 24.9157 71.0591 24.9157 70.7331 24.9157C70.4071 24.9157 70.064 24.9072 69.7037 24.8903C69.3606 24.8734 69.026 24.8564 68.7 24.8395C68.3912 24.8226 68.1768 24.7972 68.0567 24.7633C67.9023 24.7294 67.7993 24.6702 67.7479 24.5855C67.6964 24.5008 67.6707 24.3908 67.6707 24.2553V21.8933Z" fill="#022A3B"/>
<path d="M79.6584 15.112C79.6584 15.0273 79.7613 14.9596 79.9672 14.9088C80.1559 14.858 80.3275 14.8326 80.4819 14.8326H83.0296C82.4635 14.24 82.1804 13.3171 82.1804 12.0642V11.6578C82.1804 10.6757 82.3519 9.82065 82.6951 9.09257C83.0382 8.34756 83.5186 7.72953 84.1362 7.2385C84.771 6.74747 85.5173 6.38343 86.3751 6.14638C87.2501 5.90933 88.2109 5.7908 89.2574 5.7908C89.6177 5.7908 90.0123 5.80773 90.4412 5.8416C90.8701 5.85853 91.2819 5.88393 91.6764 5.91779C92.0882 5.95166 92.4571 6.00245 92.783 6.07018C93.1262 6.12098 93.4007 6.17177 93.6065 6.22257C93.7953 6.27337 93.9154 6.3411 93.9668 6.42576C94.0355 6.51042 94.0698 6.62048 94.0698 6.75593V13.5881C94.0698 14.2146 94.0612 14.9511 94.044 15.7977C94.0269 16.6443 93.984 17.4401 93.9154 18.1851C93.8982 18.3545 93.8296 18.473 93.7095 18.5407C93.6065 18.6084 93.4693 18.6508 93.2977 18.6677C92.56 18.7016 91.848 18.727 91.1618 18.7439C90.4927 18.7608 89.8064 18.7693 89.103 18.7693H80.4819C80.3275 18.7693 80.1559 18.7439 79.9672 18.6931C79.7613 18.6423 79.6584 18.5746 79.6584 18.4899V15.112ZM86.1435 12.242C86.1435 13.1224 86.3322 13.7997 86.7097 14.2738C87.1043 14.731 87.7133 14.9596 88.5368 14.9596C88.6226 14.9596 88.7341 14.9596 88.8714 14.9596C89.0258 14.9596 89.1802 14.9596 89.3346 14.9596C89.489 14.9596 89.6348 14.9596 89.7721 14.9596C89.9093 14.9426 90.0209 14.9257 90.1066 14.9088V9.32116C89.712 9.27036 89.2831 9.24496 88.8199 9.24496C87.0356 9.24496 86.1435 10.1 86.1435 11.8102V12.242ZM86.4266 0.58416C86.4266 0.414838 86.4866 0.279381 86.6067 0.177787C86.7268 0.0592623 86.8727 0 87.0442 0H89.6692C89.8236 0 89.9522 0.0592623 90.0552 0.177787C90.1753 0.279381 90.2353 0.414838 90.2353 0.58416V2.99699C90.2353 3.14938 90.1753 3.28484 90.0552 3.40337C89.9522 3.50496 89.815 3.55575 89.6434 3.55575H87.0442C86.8555 3.55575 86.7011 3.50496 86.581 3.40337C86.4781 3.28484 86.4266 3.14938 86.4266 2.99699V0.58416Z" fill="#022A3B"/>
<path d="M97.0522 15.3151C97.0522 15.1797 97.1036 15.0696 97.2066 14.985C97.3095 14.8834 97.4296 14.8326 97.5669 14.8326H104.001L103.949 13.0293C103.915 12.4875 103.82 11.9964 103.666 11.5562C103.529 11.099 103.297 10.7181 102.971 10.4133C102.662 10.0916 102.242 9.84605 101.71 9.67673C101.178 9.49048 100.518 9.39735 99.7286 9.39735C99.6771 9.39735 99.5827 9.39735 99.4455 9.39735C99.3082 9.39735 99.1538 9.39735 98.9823 9.39735C98.8279 9.39735 98.6649 9.40582 98.4933 9.42275C98.3389 9.42275 98.2188 9.43122 98.133 9.44815C97.8242 9.44815 97.6698 9.31269 97.6698 9.04178V6.65434C97.6698 6.51888 97.7127 6.40036 97.7985 6.29877C97.8843 6.18024 98.0129 6.11251 98.1845 6.09558C98.682 6.01092 99.1967 5.96012 99.7286 5.94319C100.26 5.90933 100.655 5.89239 100.912 5.89239C102.251 5.89239 103.349 6.10405 104.206 6.52735C105.081 6.93372 105.785 7.47555 106.317 8.15284C106.848 8.81319 107.226 9.57514 107.449 10.4387C107.672 11.2853 107.809 12.1488 107.861 13.0293L107.912 14.8326H109.456V18.7693H97.5669C97.4296 18.7693 97.3095 18.727 97.2066 18.6423C97.1036 18.5577 97.0522 18.4476 97.0522 18.3121V15.3151Z" fill="#022A3B"/>
<path d="M115.176 13.0801C115.176 13.4187 115.202 13.7405 115.254 14.0452C115.374 14.5871 115.614 14.9596 115.974 15.1628C116.334 15.3659 116.789 15.4675 117.338 15.4675C118.042 15.4675 118.565 15.2897 118.908 14.9342C119.268 14.5786 119.448 13.9352 119.448 13.0039V12.0134C119.448 11.099 119.277 10.4556 118.934 10.0831C118.591 9.69366 118.059 9.49894 117.338 9.49894C116.618 9.49894 116.077 9.69366 115.717 10.0831C115.357 10.4556 115.176 11.099 115.176 12.0134V13.0801ZM108.434 15.112C108.434 15.0273 108.537 14.9596 108.743 14.9088C108.931 14.858 109.103 14.8326 109.257 14.8326H110.029C110.252 14.8326 110.493 14.8072 110.75 14.7564C111.025 14.6887 111.196 14.5193 111.265 14.2484C111.299 14.1638 111.316 14.0876 111.316 14.0198C111.316 13.9352 111.316 13.8505 111.316 13.7659V11.8864C111.316 10.9212 111.462 10.0831 111.754 9.37195C112.062 8.64387 112.483 8.04278 113.015 7.56868C113.547 7.07765 114.181 6.7136 114.919 6.47655C115.674 6.22257 116.497 6.09558 117.39 6.09558C118.282 6.09558 119.088 6.2141 119.809 6.45116C120.546 6.68821 121.173 7.04378 121.687 7.51788C122.202 7.99198 122.597 8.58461 122.871 9.29576C123.163 10.0069 123.309 10.8451 123.309 11.8102V13.3595C123.309 14.3585 123.163 15.2136 122.871 15.9247C122.597 16.6359 122.202 17.2285 121.687 17.7026C121.173 18.1767 120.546 18.5238 119.809 18.7439C119.071 18.964 118.247 19.0741 117.338 19.0741C116.926 19.0741 116.506 19.0487 116.077 18.9979C115.648 18.964 115.236 18.8963 114.842 18.7947C114.447 18.6931 114.078 18.5661 113.735 18.4137C113.409 18.2613 113.143 18.0836 112.937 17.8804C112.56 18.219 112.105 18.4561 111.574 18.5915C111.042 18.71 110.415 18.7693 109.695 18.7693H109.257C109.103 18.7693 108.931 18.7439 108.743 18.6931C108.537 18.6423 108.434 18.5746 108.434 18.4899V15.112Z" fill="#022A3B"/>
<path d="M50.7123 31.6172H58.3823C63.332 31.6172 65.8069 34.0307 65.8069 38.8577C65.8069 41.312 65.1728 43.1835 63.9047 44.4721C62.6571 45.7606 60.8163 46.4049 58.3823 46.4049H54.9462V52.4795H50.7123V31.6172ZM58.3516 42.7847C60.4583 42.7847 61.5117 41.4757 61.5117 38.8577C61.5117 37.5895 61.256 36.6691 60.7447 36.0965C60.2538 35.5238 59.4561 35.2374 58.3516 35.2374H54.9462V42.7847H58.3516Z" fill="#022A3B"/>
<path d="M80.819 48.7059H73.5171L72.6888 52.4795H68.4549L73.149 31.6172H81.1871L85.8811 52.4795H81.6473L80.819 48.7059ZM77.9044 35.1147H76.4317L74.3148 45.0243H80.0213L77.9044 35.1147Z" fill="#022A3B"/>
<path d="M93.2084 44.0426L86.7656 31.6172H91.4596L95.2946 39.9315L99.1296 31.6172H103.824L97.4422 44.0426V52.4795H93.2084V44.0426Z" fill="#022A3B"/>
<path d="M115.134 31.6172C117.506 31.6172 119.326 31.9547 120.595 32.6296C121.863 33.2841 122.742 34.3272 123.233 35.759C123.744 37.1907 124 39.1747 124 41.7109C124 44.3494 123.755 46.4356 123.264 47.9696C122.773 49.5036 121.883 50.6387 120.595 51.3751C119.326 52.1114 117.506 52.4795 115.134 52.4795H108.108V31.6172H115.134ZM115.134 48.798C116.463 48.798 117.445 48.5321 118.079 48.0003C118.733 47.4685 119.153 46.7117 119.337 45.73C119.541 44.7277 119.643 43.3062 119.643 41.4654C119.643 39.8292 119.541 38.5918 119.337 37.7532C119.132 36.9146 118.713 36.301 118.079 35.9124C117.445 35.5033 116.463 35.2988 115.134 35.2988H112.342V48.798H115.134Z" fill="#022A3B"/>
<defs>
<filter id="filter0_d" x="3.2663" y="10.6484" width="30.6063" height="25.7621" filterUnits="userSpaceOnUse" color-interpolation-filters="sRGB">
<feFlood flood-opacity="0" result="BackgroundImageFix"/>
<feColorMatrix in="SourceAlpha" type="matrix" values="0 0 0 0 0 0 0 0 0 0 0 0 0 0 0 0 0 0 127 0"/>
<feOffset dy="3"/>
<feGaussianBlur stdDeviation="2"/>
<feColorMatrix type="matrix" values="0 0 0 0 0 0 0 0 0 0 0 0 0 0 0 0 0 0 0.1 0"/>
<feBlend mode="normal" in2="BackgroundImageFix" result="effect1_dropShadow"/>
<feBlend mode="normal" in="SourceGraphic" in2="effect1_dropShadow" result="shape"/>
</filter>
<linearGradient id="paint0_linear" x1="23.9206" y1="0.34375" x2="23.9206" y2="52.785" gradientUnits="userSpaceOnUse">
<stop stop-color="#04D14B"/>
<stop offset="1" stop-color="#267EFD"/>
</linearGradient>
</defs>
</svg>
